<?xml version="1.0" standalone="no"?><!DOCTYPE svg PUBLIC "-//W3C//DTD SVG 1.1//EN" "http://www.w3.org/Graphics/SVG/1.1/DTD/svg11.dtd"><svg t="1672636343450" class="icon" viewBox="0 0 1024 1024" version="1.1" xmlns="http://www.w3.org/2000/svg" p-id="1151" xmlns:xlink="http://www.w3.org/1999/xlink" width="200" height="200"><path d="M-826.65775445 213.22865778" p-id="1152"></path><path d="M-826.65775445 213.22865778" p-id="1153"></path><path d="M609.81854777 658.65500445l0 95.51265222L268.78862222 754.16765667l0-95.51265222L609.81854777 658.65500445zM850.77257443 899.60903111L850.77257443 367.57807445 173.22742557 367.57807445l0 532.03095666L850.77257443 899.60903111zM850.77257443 124.34242333c52.28316445 0 97.79427555 45.4868389 97.79427556 97.79427555l0 677.54515001c0 52.28316445-45.4868389 97.79427555-97.79427556 97.79427556L173.22742557 997.47612445c-54.56478777 0-97.79427555-45.4868389-97.79427556-97.79427556L75.43315001 222.11242667c0-52.28316445 43.20521443-97.79427555 97.79427556-97.79427556l47.71991665 0L220.94734222 26.54814777l97.79427556 0 0 97.79427556 386.51676444 0L705.25838222 26.54814777l97.79427556 0 0 97.79427556L850.77257443 124.34242333zM755.30846777 463.09072555l0 97.79427555L268.78862222 560.8850011l0-97.79427555L755.30846777 463.09072555z" p-id="1154"></path></svg>