<?xml version="1.0" standalone="no"?><!DOCTYPE svg PUBLIC "-//W3C//DTD SVG 1.1//EN" "http://www.w3.org/Graphics/SVG/1.1/DTD/svg11.dtd"><svg t="1672543632423" class="icon" viewBox="0 0 1290 1024" version="1.1" xmlns="http://www.w3.org/2000/svg" p-id="1471" xmlns:xlink="http://www.w3.org/1999/xlink" width="251.953125" height="200"><path d="M943.39141093 382.14235344A330.70304156 330.70304156 0 0 1 726.09492812 693.81212562V420.20889031h79.30528594l-158.61057094-158.61057187-158.61057187 158.61057187h79.30528593v291.84345094a333.0822 333.0822 0 0 1-291.05039906-324.35861813v-5.55136968a333.87525281 333.87525281 0 1 1 666.95745281 0z" p-id="1472"></path><path d="M1241.57928531 663.67611687v46.79011876a282.32681719 282.32681719 0 0 1-281.53376438 281.53376437h-626.51175656A282.32681719 282.32681719 0 0 1 52 710.46623562v-46.79011875a283.11987 283.11987 0 0 1 224.43395812-275.98239374 331.49609438 331.49609438 0 0 1 57.09980625-5.55136969H527.83171375l-38.06653688 38.06653687h79.30528594v317.22114282h158.61057094v-317.22114282h79.30528593L765.74757156 382.14235344h192.71184375A282.32681719 282.32681719 0 0 1 1241.57928531 663.67611687z" p-id="1473"></path></svg>