<?xml version="1.0" standalone="no"?><!DOCTYPE svg PUBLIC "-//W3C//DTD SVG 1.1//EN" "http://www.w3.org/Graphics/SVG/1.1/DTD/svg11.dtd"><svg t="1672543627792" class="icon" viewBox="0 0 1024 1024" version="1.1" xmlns="http://www.w3.org/2000/svg" p-id="1332" xmlns:xlink="http://www.w3.org/1999/xlink" width="200" height="200"><path d="M830.94186667 785.24871147v113.77777706a113.77777813 113.77777813 0 0 1-113.77777814 113.77777814h-136.53333333a22.66453333 22.66453333 0 0 1-22.7555552-22.7555552V967.11111147c0-80.55466667-46.19377813-136.3968-136.89742187-136.3968-89.83893333 0-136.6243552 56.3427552-136.62435626 136.3968v22.89208853a22.7555552 22.7555552 0 0 1-22.7555552 22.7555552h-136.53333334a113.77777813 113.77777813 0 0 1-113.77777813-113.82328853l0.45511147-136.53333334a22.7555552 22.7555552 0 0 1 22.7555552-22.66453333h45.51111146c62.6688 0 113.50471147-58.89137813 113.50471147-136.53333333 0-78.27911147-50.51733333-136.53333333-113.50471147-136.53333334H34.36088853a22.7555552 22.7555552 0 0 1-22.7555552-22.7555552v-136.53333333a113.77777813 113.77777813 0 0 1 113.77777814-113.77777813h113.4592V193.42222187c0-103.53777813 65.08088853-181.90791147 182.13546666-181.9079104 114.14186667 0 182.81813333 80.4636448 182.81813334 181.9079104v0.13653333h113.95982186a113.77777813 113.77777813 0 0 1 113.77777814 113.77777813v113.77777814h22.1639104c89.65688853 0 159.01582187 80.00853333 159.01582293 182.04444373 0 101.44426667-69.632 182.0444448-159.01582293 182.0444448h-22.7555552z m-45.51111147-22.1184v-0.63715627a22.7555552 22.7555552 0 0 1 22.75555627-22.7555552h45.5111104c62.6688 0 113.50471147-58.89137813 113.50471146-136.53333333 0-78.27911147-50.51733333-136.53333333-113.50471146-136.53333334h-45.5111104a22.7555552 22.7555552 0 0 1-22.16391147-28.0803552V307.33653333a68.26666667 68.26666667 0 0 0-68.26666667-68.26666666h-135.3500448a23.21066667 23.21066667 0 0 1-1.36533333 0 22.7555552 22.7555552 0 0 1-22.7555552-22.7555552V193.42222187c0-77.77848853-50.06222187-136.3968-137.30702187-136.3968-89.83893333 0-136.6243552 56.3427552-136.62435626 136.3968v22.8920896a22.66453333 22.66453333 0 0 1-22.7555552 22.7555552H125.38311147a68.26666667 68.26666667 0 0 0-68.26666667 68.26666666v113.77777814h22.89208853c89.65688853 0 159.01582187 80.00853333 159.01582187 182.04444373 0 101.44426667-69.632 182.0444448-159.01582187 182.0444448h-22.84657813l-0.36408853 113.77777813a68.26666667 68.26666667 0 0 0 68.26666666 68.26666667h113.77777814V967.11111147c0-103.53777813 65.08088853-181.90791147 182.13546666-181.90791147 117.9648 0 182.40853333 77.86951147 182.40853334 181.90791147v0.18204373h113.77777706a68.26666667 68.26666667 0 0 0 68.26666667-68.26666667v-135.89617706z" p-id="1333"></path></svg>