<?xml version="1.0" standalone="no"?><!DOCTYPE svg PUBLIC "-//W3C//DTD SVG 1.1//EN" "http://www.w3.org/Graphics/SVG/1.1/DTD/svg11.dtd"><svg t="1672543635210" class="icon" viewBox="0 0 1024 1024" version="1.1" xmlns="http://www.w3.org/2000/svg" p-id="1611" xmlns:xlink="http://www.w3.org/1999/xlink" width="200" height="200"><path d="M218.1752256 475.5757568c18.4042304 0 33.31557547-14.91243627 33.31557547-33.31557547 0-118.05951787 69.137296-210.90477227 184.93080426-248.341952 15.77910827-5.09742933 25.3987328-21.02826027 22.57931947-37.36186453-0.45516693-2.64586027-0.683296-5.22732053-0.683296-7.6777984 0-26.2555808 24.19586987-47.610208 53.9323296-47.610208 29.71572053 0 53.899584 21.35353493 53.899584 47.610208 0 2.53779947-0.21721387 5.04285333-0.63963413 7.47259093-2.9285664 16.57155733 6.9737632 32.71960213 23.0563168 37.6434784 117.54977493 35.96252693 184.96245867 126.45335787 184.96245866 248.26554454 0 18.4042304 14.91243627 33.31557547 33.31666667 33.31557546s33.31557547-14.91243627 33.31557547-33.31557546c0-142.3088736-77.17311467-254.14341547-207.86814507-303.7063648-5.5198496-58.17291093-57.25166187-103.9176992-120.0439136-103.9176992-62.9996416 0-114.87116907 46.02640213-120.13123627 104.44927253-128.51416 51.19914773-207.26016427 165.2898752-207.26016426 303.17479147C184.8596512 460.66332053 199.77099627 475.5757568 218.1752256 475.5757568z" p-id="1612"></path><path d="M840.43926613 608.33049813l0-59.61590933c0-18.4042304-14.91243627-33.31557547-33.31557546-33.31557547s-33.31666667 14.91243627-33.31666667 33.31557547l0 72.52102827c0 8.32944 3.1239488 16.36525867 8.75186027 22.50400426 42.78347733 46.69878293 92.14012693 106.130224 101.445392 124.686176-0.33618987 11.5494432-3.56820053 14.45617813-34.75857387 14.45617814L175.80871253 782.88197653c-28.78246507 0-33.7827488-7.7432896-34.650512-14.6515616 9.78226133-18.88122773 59.07341973-77.94373227 101.81323627-124.44713173 5.66065707-6.1496608 8.79552107-14.19639467 8.79552107-22.54657387l0-72.52102826c0-18.4042304-14.91243627-33.31557547-33.31557547-33.31557547s-33.31557547 14.91243627-33.31557547 33.31557547l0 59.57224746C74.34258133 729.93638613 74.34258133 752.88464213 74.34258133 764.0542336c0 41.30882453 26.65726293 85.4588928 101.4661312 85.4588928l673.43699094 0c25.08437333 0 101.4344768 0 101.4344768-85.4588928C950.6801792 752.84098027 950.6801792 729.81631893 840.43926613 608.33049813z" p-id="1613"></path><path d="M393.59992533 356.268624c-18.4042304 0-33.31557547 14.91243627-33.31557546 33.31666667l0 32.50238826c0 18.4042304 14.91243627 33.31666667 33.31557546 33.31666667s33.31666667-14.91243627 33.31666667-33.31666667l0-32.50238826C426.916592 371.18106027 412.00415573 356.268624 393.59992533 356.268624z" p-id="1614"></path><path d="M631.421744 356.268624c-18.4042304 0-33.31666667 14.91243627-33.31666667 33.31666667l0 32.50238826c0 18.4042304 14.91243627 33.31666667 33.31666667 33.31666667 18.4042304 0 33.31557547-14.91243627 33.31557547-33.31666667l0-32.50238826C664.73841067 371.18106027 649.82597333 356.268624 631.421744 356.268624z" p-id="1615"></path><path d="M512.1822848 604.19797867c46.8941664 0 80.1125952-32.3397504 92.3464256-51.438192 9.83683733-15.356688 5.368128-35.58267627-9.8586688-45.61489707-15.2595424-10.0322208-35.83263573-5.74797867-46.0373184 9.34892587-0.1408064 0.20629867-14.5216704 21.07192107-36.45043947 21.07192106-21.32188053 0-34.595936-19.3254784-35.48553066-20.67023893-9.79317653-15.3676032-30.17088747-20.0633504-45.69021227-10.40006507-15.62738667 9.70585493-20.43228693 30.24729387-10.7144256 45.87468054C432.2541568 571.619184 465.05998933 604.19797867 512.1822848 604.19797867z" p-id="1616"></path><path d="M607.6384704 879.99946453c-16.1917056-8.77369067-36.40677867-2.76592853-45.16955413 13.41486187-9.9121536 18.28525333-29.06517013 29.65022933-49.9962848 29.65022933-20.8328768 0-39.9749792-11.38680533-49.952624-29.70480533-8.80643627-16.15896-29.03242453-22.12415253-45.19138454-13.32863147-16.15896 8.80643627-22.12415253 29.03242453-13.32863146 45.19138454 21.65807147 39.76868053 63.22667947 64.4742944 108.47264 64.4742944 45.3976832 0 86.9990368-24.726352 108.5807008-64.5277792C629.81719893 908.98822827 623.8094368 888.77315627 607.6384704 879.99946453z" p-id="1617"></path></svg>